<svg xmlns="http://www.w3.org/2000/svg" viewBox="0 0 27.8 27.6"><defs><style>.cls-1{fill:#bf3229;}</style></defs><title>telegram-red</title><g id="Слой_2" data-name="Слой 2"><g id="Слой_1-2" data-name="Слой 1"><g id="Слой_2-2" data-name="Слой 2"><g id="Слой_1-2-2" data-name="Слой 1-2"><g id="icons"><g id="telegram"><path class="cls-1" d="M18.9,9.9l-7.8,6.9a.37.37,0,0,0-.1.3l-.3,2.7c0,.1-.1.1-.2,0l-1.2-4a.37.37,0,0,1,.18-.49h0l9.1-5.7C18.9,9.5,19.1,9.8,18.9,9.9Z"/><path class="cls-1" d="M13.9,0A13.83,13.83,0,0,0,0,13.76v0a13.51,13.51,0,0,0,4.1,9.8,13.83,13.83,0,0,0,9.8,4A13.83,13.83,0,0,0,27.8,13.84v0A14,14,0,0,0,13.9,0Zm8.2,7.9L19.3,21.5a.89.89,0,0,1-1.4.5l-4.3-3.2L11.4,21a.73.73,0,0,1-1.2-.3l-1.6-5L4.4,14.4a.56.56,0,0,1,0-1.1L21.1,6.8a.89.89,0,0,1,1,1.1Z"/></g></g></g></g></g></g></svg>